# xmcd CD database file
#
# Track frame offsets:
#	150
#	15300
#	35636
#	57295
#	77419
#	108713
#	127654
#	154613
#	181784
#	207297
#	235733
#	259001
#
# Disc length: 3742 seconds
#
# Revision: 0
# Processed by: cddbd v1.5.2PL0 Copyright (c) Steve Scherf et al.
# Submitted via: CDex 1.51
#
DISCID=8a0e9c0c
DTITLE=Terry Lee Burns - Freehand
DYEAR=1997
DGENRE=Jazz
TTITLE0=Visitation
TTITLE1=Innocence
TTITLE2=Freehand
TTITLE3=Take the Coltrane
TTITLE4=Sunshower
TTITLE5=Three Flights Up
TTITLE6=Last Train Home
TTITLE7=So It May Secretly Begin
TTITLE8=Neophilia
TTITLE9=Ascendant
TTITLE10=A Flower is a Lovesome Thing
TTITLE11=Danny Boy
EXTD=YEAR: 1997
EXTT0=
EXTT1=
EXTT2=
EXTT3=
EXTT4=
EXTT5=
EXTT6=
EXTT7=
EXTT8=
EXTT9=
EXTT10=
EXTT11=
PLAYORDER=
